<svg width="23" height="27" viewBox="0 0 23 27" fill="none" xmlns="http://www.w3.org/2000/svg">
<path d="M10.0625 0.129993C8.18953 0.490177 6.7608 1.65477 6.19651 3.29961C5.95639 4.01397 5.87234 4.77036 5.95038 5.49673C6.19651 7.66383 7.52919 9.64484 9.29409 10.4913C11.035 11.3257 12.9439 10.9235 14.4267 9.41072C15.7594 8.05403 16.4797 6.11504 16.2816 4.39817C16.2096 3.72583 16.0896 3.31161 15.8254 2.78335C15.5613 2.24907 15.4472 2.08099 14.997 1.61275C14.3787 0.958416 13.5262 0.466166 12.5958 0.220039C11.9775 0.0579576 10.6868 0.00993252 10.0625 0.129993ZM12.3556 1.15051C13.4962 1.45667 14.4867 2.24907 14.967 3.25158C15.2671 3.8699 15.2611 3.88791 14.6668 3.88791C13.9224 3.88191 13.4302 3.69581 12.8659 3.19155C12.5658 2.92742 12.4637 2.86739 12.2836 2.86739C12.1035 2.86739 12.0255 2.91541 11.7914 3.17354C11.1971 3.83388 10.3386 4.34414 9.5162 4.52423C8.98793 4.64429 8.1475 4.61428 7.49317 4.4642C6.89887 4.32613 6.90487 4.33213 7.01293 3.92993C7.16901 3.34163 7.46316 2.81936 7.91939 2.33312C8.5257 1.69079 9.21605 1.30659 10.1165 1.09649C10.6028 0.988431 11.8514 1.01845 12.3556 1.15051ZM12.6018 4.25409C13.2441 4.69832 13.9585 4.87841 14.8529 4.83639L15.3932 4.81238L15.3572 5.14255C15.2431 6.14506 15.015 6.88343 14.5828 7.61581C13.5443 9.3747 11.8934 10.2511 10.3746 9.86095C8.77182 9.44074 7.33109 7.71786 6.97691 5.79088C6.93489 5.56876 6.91087 5.37667 6.92888 5.36466C6.94089 5.34665 7.11498 5.37667 7.31308 5.42469C7.91338 5.57477 9.09599 5.60478 9.67828 5.48472C10.5547 5.30463 11.3651 4.89642 12.0555 4.28411C12.1876 4.17005 12.3016 4.074 12.3136 4.068C12.3256 4.068 12.4517 4.15204 12.6018 4.25409Z" fill="#9747FF"/>
<path d="M8.66363 11.5478C8.54957 11.5598 8.11735 11.6018 7.70314 11.6378C5.12783 11.8599 3.11081 12.8444 2.42045 14.2131C2.19234 14.6694 2.04226 15.1976 1.34591 17.929C1.00974 19.2257 0.661558 20.5464 0.559506 20.8525C0.259353 21.795 0.325387 22.6354 0.757607 23.3198C0.883671 23.5179 2.04826 24.6645 2.84067 25.3668L3.05077 25.5529L1.74211 25.5589C0.433442 25.5589 0.433442 25.5589 0.289368 25.709C0.0912675 25.9011 0.0852644 26.2073 0.277362 26.3873L0.415433 26.5194H11.1969H21.9844L22.1045 26.3633C22.2726 26.1472 22.2666 25.8891 22.0805 25.709C21.9364 25.5589 21.9364 25.5589 20.6277 25.5529H19.3191L20.2856 24.6104C21.3901 23.5359 21.5822 23.2898 21.7503 22.7495C21.9364 22.1432 21.9124 21.6209 21.6542 20.8045C21.5402 20.4323 21.186 19.1417 20.8739 17.935C20.2135 15.3777 19.9974 14.6694 19.7693 14.2131C19.0789 12.8504 17.164 11.902 14.5466 11.6258C13.9463 11.5658 9.10186 11.4998 8.66363 11.5478ZM11.9353 12.4723H12.1874L11.8332 13.3547L11.4731 14.2372L11.6592 15.4378C11.7612 16.1041 11.8453 16.6624 11.8453 16.6864C11.8453 16.7164 11.5511 16.7344 11.1849 16.7344C10.8187 16.7344 10.5246 16.7104 10.5246 16.6804C10.5246 16.6504 10.6086 16.0981 10.7047 15.4618C10.8067 14.8255 10.8728 14.2372 10.8547 14.1591C10.8367 14.0811 10.6747 13.6729 10.5006 13.2466L10.1824 12.4783L10.4886 12.4542C10.6566 12.4362 10.9928 12.4362 11.2389 12.4482C11.4851 12.4602 11.7972 12.4723 11.9353 12.4723ZM9.51607 13.4087L9.90026 14.3512L9.71417 15.5278L9.53408 16.7044L6.4485 16.7344L3.36293 16.7644L3.25488 16.9145C3.14082 17.0646 3.14682 17.1426 3.46499 20.9666C3.64508 23.1097 3.78915 24.8686 3.78315 24.8806C3.77714 24.8866 3.27889 24.4363 2.68459 23.8781C1.79614 23.0556 1.57402 22.8155 1.47197 22.5694C1.27987 22.1252 1.29788 21.699 1.55001 20.9065C1.67007 20.5464 1.96422 19.4418 2.21635 18.4453C2.76863 16.2362 3.04477 15.2457 3.21286 14.8134C3.57304 13.913 4.93573 13.0846 6.62259 12.7424C7.04281 12.6583 8.3935 12.5083 8.96979 12.4783C9.11987 12.4723 9.14988 12.5263 9.51607 13.4087ZM15.345 12.7124C16.9358 12.9825 18.2505 13.6609 18.8028 14.4953C19.0429 14.8495 19.205 15.3957 19.9134 18.1151C20.2255 19.3217 20.5797 20.6124 20.6938 20.9846C21.108 22.3053 21.0119 22.5574 19.5412 23.9741L18.5627 24.9166L18.5987 24.5624C18.7848 22.8095 19.211 17.1186 19.169 17.0046C19.139 16.9265 19.0609 16.8305 18.9949 16.8005C18.9169 16.7584 17.8723 16.7344 15.8553 16.7344H12.8358L12.6497 15.5458L12.4696 14.3632L12.7577 13.6609C12.9138 13.2707 13.0879 12.8564 13.1359 12.7364L13.226 12.5143L13.9523 12.5563C14.3545 12.5803 14.9788 12.6463 15.345 12.7124ZM18.1845 18.0371C18.1605 18.2292 18.0284 19.856 17.8783 21.6569C17.7343 23.4578 17.5962 25.0727 17.5782 25.2408L17.5422 25.5589H11.1849H4.83368L4.79766 25.2408C4.77966 25.0727 4.64158 23.4578 4.49151 21.6569C4.34743 19.856 4.20936 18.2292 4.18535 18.0371L4.14933 17.6949H11.1849H18.2205L18.1845 18.0371Z" fill="#9747FF"/>
<path d="M10.9029 21.0265C10.6628 21.1286 10.5847 21.2787 10.5847 21.6148C10.5847 21.843 10.6147 21.909 10.7708 22.0411C10.8969 22.1491 11.0229 22.1971 11.185 22.1971C11.3471 22.1971 11.4732 22.1491 11.5992 22.0411C11.7553 21.909 11.7853 21.843 11.7853 21.6148C11.7853 21.2727 11.7013 21.1286 11.4552 21.0205C11.203 20.9185 11.149 20.9185 10.9029 21.0265Z" fill="#9747FF"/>
<path d="M10.2246 22.8395C9.9124 22.9596 9.81035 23.4038 10.0445 23.6379C10.1525 23.746 10.2426 23.758 11.1851 23.758C12.1275 23.758 12.2176 23.746 12.3256 23.6379C12.4937 23.4698 12.4877 23.0977 12.3196 22.9416C12.2056 22.8395 12.0855 22.8275 11.2511 22.8155C10.7348 22.8095 10.2726 22.8215 10.2246 22.8395Z" fill="#9747FF"/>
</svg>
